<svg xmlns="http://www.w3.org/2000/svg" width="340" height="340" viewBox="0 0 89.958 89.958"><g stroke="#000"><path d="M3.34 41.866h7.057a35.154 35.154 0 0 1 17.616-27.271 35.154 35.154 0 0 1 17.376-4.65c18.15.016 33.305 13.847 34.975 31.92h7.048C85.724 19.902 67.418 2.935 45.389 2.915a42.185 42.185 0 0 0-17.376 3.794A42.184 42.184 0 0 0 3.34 41.866zm.066 7.26a42.184 42.184 0 0 0 24.607 34.35 42.184 42.184 0 0 0 17.376 3.807c21.723-.02 39.879-16.534 41.952-38.158h-7.052c-2.045 17.73-17.052 31.115-34.9 31.127a35.154 35.154 0 0 1-17.376-4.649 35.154 35.154 0 0 1-17.502-26.478z" fill="none" stroke-width=".529"/><path d="M48.609 3.063v7.057a35.154 35.154 0 0 1 27.27 17.616 35.154 35.154 0 0 1 4.65 17.375c-.015 18.151-13.846 33.306-31.92 34.975v7.048C70.574 85.446 87.54 67.141 87.56 45.111a42.184 42.184 0 0 0-3.794-17.375A42.184 42.184 0 0 0 48.609 3.063zm-7.26.065A42.184 42.184 0 0 0 6.998 27.736h7.873A35.154 35.154 0 0 1 41.35 10.233z" fill="#565759" stroke-width=".52916"/><path d="M45.376 16.989A28.123 28.123 0 0 0 17.253 45.11a28.123 28.123 0 0 0 28.123 28.123 28.123 28.123 0 0 0 28.123-28.123A28.123 28.123 0 0 0 45.376 16.99zm0 7.29a20.832 20.832 0 0 1 20.832 20.832 20.832 20.832 0 0 1-20.832 20.832 20.832 20.832 0 0 1-20.832-20.832A20.832 20.832 0 0 1 45.376 24.28z" fill="#565759" stroke-width=".52916"/><path d="M45.376 24.28A20.832 20.832 0 0 0 24.544 45.11a20.832 20.832 0 0 0 20.832 20.832 20.832 20.832 0 0 0 20.832-20.832A20.832 20.832 0 0 0 45.376 24.28zm0 6.51A14.322 14.322 0 0 1 59.698 45.11a14.322 14.322 0 0 1-14.322 14.322 14.322 14.322 0 0 1-14.322-14.322A14.322 14.322 0 0 1 45.376 30.79z" fill="#f7941f" stroke-width=".52916"/><path d="M6.998 27.736A42.184 42.184 0 0 0 3.192 45.11c.02 21.723 16.534 39.879 38.157 41.952v-7.052c-17.73-2.044-31.115-17.051-31.126-34.9a35.154 35.154 0 0 1 4.648-17.375z" fill="#f7941f" stroke-width=".52916"/><path d="M45.376 9.958a35.154 35.154 0 0 0-30.508 17.778h8.435a28.123 28.123 0 0 1 18.046-10.418v62.693c2.39.176 4.812.245 7.26.075V17.194A28.123 28.123 0 0 1 67.48 27.736h8.425a35.154 35.154 0 0 0-30.53-17.778z" fill="#f7941f" stroke-width=".52916"/></g></svg>